<svg width="180" height="180" viewBox="0 0 180 180" fill="none" xmlns="http://www.w3.org/2000/svg">
<rect x="2" y="2" width="176" height="176" rx="88" stroke="url(#paint0_linear_1485_489)" stroke-width="4"/>
<path d="M80.0186 31.7871C86.1969 28.2291 93.8031 28.2291 99.9814 31.7871L135.981 52.5195C142.18 56.0893 146 62.6977 146 69.8506V111.228L145.989 111.896C145.759 118.791 141.986 125.1 135.981 128.559L99.9814 149.291L99.3975 149.614C93.3285 152.846 86.0038 152.738 80.0186 149.291L66.7744 141.664L47.5332 151.896L48.2627 131.002L44.0186 128.559C38.0139 125.1 34.2407 118.791 34.0107 111.896L34 111.228V69.8506C34.0001 62.9209 37.5854 56.5021 43.4453 52.8623L44.0186 52.5195L80.0186 31.7871ZM95.4893 39.5859C92.0914 37.6293 87.9086 37.6293 84.5107 39.5859L48.5107 60.3184C45.1015 62.2817 43.0001 65.9165 43 69.8506V111.228C43 115.162 45.1015 118.796 48.5107 120.76L84.5107 141.492C87.9087 143.449 92.0913 143.449 95.4893 141.492L131.489 120.76C134.898 118.796 137 115.162 137 111.228V69.8506C137 65.9165 134.898 62.2817 131.489 60.3184L95.4893 39.5859ZM139.796 35.2041L146 37.5L139.796 39.7959L137.5 46L135.204 39.7959L129 37.5L135.204 35.2041L137.5 29L139.796 35.2041Z" fill="url(#paint1_linear_1485_489)"/>
<defs>
<linearGradient id="paint0_linear_1485_489" x1="90" y1="0" x2="90" y2="180" gradientUnits="userSpaceOnUse">
<stop stop-color="#00C389"/>
<stop offset="1" stop-color="#4298B5"/>
</linearGradient>
<linearGradient id="paint1_linear_1485_489" x1="90" y1="29" x2="90" y2="153.532" gradientUnits="userSpaceOnUse">
<stop stop-color="#00C389"/>
<stop offset="1" stop-color="#4298B5"/>
</linearGradient>
</defs>
</svg>
