<svg width="449" height="127" viewBox="0 0 449 127" fill="none" xmlns="http://www.w3.org/2000/svg">
<path d="M46.0186 2.78711C52.1969 -0.770923 59.8031 -0.770922 65.9814 2.78711L101.981 23.5195C108.18 27.0893 112 33.6977 112 40.8506V82.2275L111.989 82.8965C111.759 89.7905 107.986 96.1003 101.981 99.5586L65.9814 120.291L65.3975 120.614C59.3285 123.846 52.0038 123.738 46.0186 120.291L32.7744 112.664L13.5332 122.896L14.2627 102.002L10.0186 99.5586C4.01388 96.1003 0.240699 89.7905 0.0107422 82.8965L0 82.2275V40.8506C7.91059e-05 33.9209 3.58545 27.5021 9.44531 23.8623L10.0186 23.5195L46.0186 2.78711ZM61.4893 10.5859C58.0914 8.62932 53.9086 8.62933 50.5107 10.5859L14.5107 31.3184C11.1015 33.2817 9.00008 36.9165 9 40.8506V82.2275C9.00003 86.1617 11.1015 89.7964 14.5107 91.7598L50.5107 112.492C53.9087 114.449 58.0913 114.449 61.4893 112.492L97.4893 91.7598C100.898 89.7964 103 86.1617 103 82.2275V40.8506C103 36.9165 100.898 33.2817 97.4893 31.3184L61.4893 10.5859ZM105.796 6.2041L112 8.5L105.796 10.7959L103.5 17L101.204 10.7959L95 8.5L101.204 6.2041L103.5 0L105.796 6.2041Z" fill="white"/>
<path d="M206.032 102.084C204.507 102.084 203.224 101.598 202.184 100.628C201.213 99.5877 200.728 98.3051 200.728 96.7797V67.0357C200.728 62.6677 199.653 59.4437 197.504 57.3637C195.355 55.2144 192.547 54.1397 189.08 54.1397C185.475 54.1397 182.493 55.3877 180.136 57.8837C177.848 60.3797 176.704 63.5691 176.704 67.4517H168.072C168.072 62.9451 169.043 58.9931 170.984 55.5957C172.925 52.1291 175.629 49.4251 179.096 47.4837C182.632 45.5424 186.653 44.5717 191.16 44.5717C195.112 44.5717 198.613 45.4384 201.664 47.1717C204.715 48.9051 207.072 51.4704 208.736 54.8677C210.469 58.1957 211.336 62.2517 211.336 67.0357V96.7797C211.336 98.3051 210.851 99.5877 209.88 100.628C208.909 101.598 207.627 102.084 206.032 102.084ZM136.664 102.084C135.139 102.084 133.856 101.598 132.816 100.628C131.845 99.5877 131.36 98.3051 131.36 96.7797V50.4997C131.36 48.9051 131.845 47.6224 132.816 46.6517C133.856 45.6811 135.139 45.1957 136.664 45.1957C138.259 45.1957 139.541 45.6811 140.512 46.6517C141.483 47.6224 141.968 48.9051 141.968 50.4997V96.7797C141.968 98.3051 141.483 99.5877 140.512 100.628C139.541 101.598 138.259 102.084 136.664 102.084ZM171.4 102.084C169.875 102.084 168.592 101.598 167.552 100.628C166.581 99.5877 166.096 98.3051 166.096 96.7797V67.0357C166.096 62.6677 165.021 59.4437 162.872 57.3637C160.723 55.2144 157.915 54.1397 154.448 54.1397C150.843 54.1397 147.861 55.3877 145.504 57.8837C143.147 60.3797 141.968 63.5691 141.968 67.4517H135.416C135.416 62.9451 136.317 58.9931 138.12 55.5957C139.923 52.1291 142.419 49.4251 145.608 47.4837C148.797 45.5424 152.437 44.5717 156.528 44.5717C160.48 44.5717 163.981 45.4384 167.032 47.1717C170.083 48.9051 172.44 51.4704 174.104 54.8677C175.837 58.1957 176.704 62.2517 176.704 67.0357V96.7797C176.704 98.3051 176.219 99.5877 175.248 100.628C174.277 101.598 172.995 102.084 171.4 102.084ZM234.37 100.004L227.298 93.7637L262.658 47.0677L269.626 53.3077L234.37 100.004ZM231.25 101.98C227.991 101.98 226.362 100.35 226.362 97.0917C226.362 93.8331 227.991 92.2037 231.25 92.2037H266.714C269.972 92.2037 271.602 93.8331 271.602 97.0917C271.602 100.35 269.972 101.98 266.714 101.98H231.25ZM230.21 54.8677C226.951 54.8677 225.322 53.2384 225.322 49.9797C225.322 46.7211 226.951 45.0917 230.21 45.0917H265.674C268.932 45.0917 270.562 46.7211 270.562 49.9797C270.562 53.2384 268.932 54.8677 265.674 54.8677H230.21ZM306.806 102.396C301.745 102.396 297.204 101.148 293.182 98.6517C289.161 96.0864 285.972 92.6544 283.614 88.3557C281.326 83.9877 280.182 79.0651 280.182 73.5877C280.182 68.1104 281.43 63.1877 283.926 58.8197C286.492 54.4517 289.924 51.0197 294.222 48.5237C298.59 45.9584 303.478 44.6757 308.886 44.6757C314.294 44.6757 319.148 45.9584 323.446 48.5237C327.745 51.0197 331.142 54.4517 333.638 58.8197C336.204 63.1877 337.486 68.1104 337.486 73.5877H333.43C333.43 79.0651 332.252 83.9877 329.894 88.3557C327.606 92.6544 324.452 96.0864 320.43 98.6517C316.409 101.148 311.868 102.396 306.806 102.396ZM308.886 93.0357C312.422 93.0357 315.577 92.2037 318.35 90.5397C321.124 88.8064 323.308 86.4837 324.902 83.5717C326.497 80.5904 327.294 77.2624 327.294 73.5877C327.294 69.8437 326.497 66.5157 324.902 63.6037C323.308 60.6224 321.124 58.2997 318.35 56.6357C315.577 54.9024 312.422 54.0357 308.886 54.0357C305.42 54.0357 302.265 54.9024 299.422 56.6357C296.649 58.2997 294.43 60.6224 292.766 63.6037C291.172 66.5157 290.374 69.8437 290.374 73.5877C290.374 77.2624 291.172 80.5904 292.766 83.5717C294.43 86.4837 296.649 88.8064 299.422 90.5397C302.265 92.2037 305.42 93.0357 308.886 93.0357ZM332.182 102.084C330.657 102.084 329.374 101.598 328.334 100.628C327.364 99.5877 326.878 98.3051 326.878 96.7797V80.8677L328.854 69.8437L337.486 73.5877V96.7797C337.486 98.3051 336.966 99.5877 335.926 100.628C334.956 101.598 333.708 102.084 332.182 102.084ZM358.578 126.316C357.053 126.316 355.77 125.796 354.73 124.756C353.759 123.785 353.274 122.537 353.274 121.012V73.5877C353.343 68.1104 354.626 63.1877 357.122 58.8197C359.618 54.4517 363.015 51.0197 367.314 48.5237C371.613 45.9584 376.466 44.6757 381.874 44.6757C387.351 44.6757 392.239 45.9584 396.538 48.5237C400.837 51.0197 404.234 54.4517 406.73 58.8197C409.295 63.1877 410.578 68.1104 410.578 73.5877C410.578 79.0651 409.399 83.9877 407.042 88.3557C404.754 92.6544 401.599 96.0864 397.578 98.6517C393.557 101.148 389.015 102.396 383.954 102.396C379.863 102.396 376.085 101.564 372.618 99.8997C369.221 98.1664 366.309 95.8437 363.882 92.9317V121.012C363.882 122.537 363.397 123.785 362.426 124.756C361.455 125.796 360.173 126.316 358.578 126.316ZM381.874 93.0357C385.41 93.0357 388.565 92.2037 391.338 90.5397C394.111 88.8064 396.295 86.4837 397.89 83.5717C399.554 80.5904 400.386 77.2624 400.386 73.5877C400.386 69.8437 399.554 66.5157 397.89 63.6037C396.295 60.6224 394.111 58.2997 391.338 56.6357C388.565 54.9024 385.41 54.0357 381.874 54.0357C378.407 54.0357 375.253 54.9024 372.41 56.6357C369.637 58.2997 367.453 60.6224 365.858 63.6037C364.263 66.5157 363.466 69.8437 363.466 73.5877C363.466 77.2624 364.263 80.5904 365.858 83.5717C367.453 86.4837 369.637 88.8064 372.41 90.5397C375.253 92.2037 378.407 93.0357 381.874 93.0357ZM432.743 101.98C431.218 101.98 429.935 101.494 428.895 100.524C427.924 99.4837 427.439 98.2011 427.439 96.6757V50.3957C427.439 48.8011 427.924 47.5184 428.895 46.5477C429.935 45.5771 431.218 45.0917 432.743 45.0917C434.338 45.0917 435.62 45.5771 436.591 46.5477C437.562 47.5184 438.047 48.8011 438.047 50.3957V96.6757C438.047 98.2011 437.562 99.4837 436.591 100.524C435.62 101.494 434.338 101.98 432.743 101.98ZM432.743 35.8357C430.871 35.8357 429.242 35.1771 427.855 33.8597C426.538 32.4731 425.879 30.8437 425.879 28.9717C425.879 27.0997 426.538 25.5051 427.855 24.1877C429.242 22.8011 430.871 22.1077 432.743 22.1077C434.615 22.1077 436.21 22.8011 437.527 24.1877C438.914 25.5051 439.607 27.0997 439.607 28.9717C439.607 30.8437 438.914 32.4731 437.527 33.8597C436.21 35.1771 434.615 35.8357 432.743 35.8357Z" fill="white"/>
</svg>
