<?xml version="1.0" standalone="no"?>
<!DOCTYPE svg PUBLIC "-//W3C//DTD SVG 20010904//EN"
 "http://www.w3.org/TR/2001/REC-SVG-20010904/DTD/svg10.dtd">
<svg version="1.0" xmlns="http://www.w3.org/2000/svg"
 width="500.000000pt" height="500.000000pt" viewBox="0 0 500.000000 500.000000"
 preserveAspectRatio="xMidYMid meet">

<g transform="translate(0.000000,500.000000) scale(0.100000,-0.100000)"
fill="#000000" stroke="none">
<path d="M2339 4539 c-107 -94 -198 -178 -204 -187 -6 -11 -12 -254 -15 -647
-4 -565 -7 -634 -22 -668 -9 -20 -24 -40 -32 -43 -9 -3 -45 8 -81 25 -118 55
-203 167 -226 299 l-11 62 -71 0 -70 0 6 -68 c17 -206 168 -384 387 -458 76
-26 234 -26 310 0 191 64 342 225 379 404 16 78 15 1424 -1 1440 -7 7 -41 12
-84 12 l-72 0 -193 -171z m209 -754 l-3 -500 -28 -59 c-35 -76 -89 -141 -145
-177 -45 -28 -110 -54 -117 -47 -2 2 2 26 10 53 12 40 15 149 15 638 l0 590
48 42 c26 23 85 77 132 118 l85 76 3 -117 c1 -64 1 -342 0 -617z"/>
<path d="M2995 4688 c-2 -13 -6 -338 -8 -723 -4 -757 -4 -754 -60 -895 -84
-207 -274 -393 -482 -470 -337 -125 -721 -17 -945 265 -94 118 -160 282 -177
440 l-8 70 -71 3 -72 3 -156 -196 c-86 -108 -156 -203 -156 -210 0 -8 16 -62
35 -121 65 -199 159 -363 285 -497 186 -199 472 -335 795 -378 50 -6 93 -15
97 -18 4 -3 -2 -33 -14 -66 -47 -139 -48 -165 -48 -914 0 -537 3 -710 12 -719
18 -18 103 -15 119 5 12 13 15 149 19 752 5 676 7 740 24 791 105 317 358 540
669 590 93 15 266 8 352 -14 153 -41 335 -159 438 -286 92 -114 163 -286 174
-425 3 -38 10 -76 16 -82 10 -14 114 -18 134 -5 6 4 79 93 163 197 149 186
152 191 146 230 -9 65 -54 193 -103 290 -191 379 -523 608 -970 671 -65 9
-123 18 -130 20 -8 2 -5 23 12 71 45 135 46 166 43 923 l-3 715 -62 3 c-58 3
-63 1 -68 -20z m-1781 -1600 c25 -89 100 -227 176 -321 124 -155 331 -290 515
-337 372 -95 780 41 1014 338 l63 80 57 -4 c314 -27 508 -93 702 -240 134
-102 270 -284 337 -450 55 -137 55 -134 -33 -244 -42 -52 -81 -95 -87 -95 -5
0 -20 32 -32 70 -98 305 -370 560 -690 648 -69 18 -106 22 -246 22 -179 -1
-221 -8 -368 -65 -149 -57 -318 -188 -423 -326 l-39 -51 -53 4 c-28 2 -101 11
-161 19 -361 50 -650 242 -820 546 -33 59 -106 236 -106 257 0 18 155 211 170
211 4 0 15 -28 24 -62z"/>
<path d="M2860 2114 c-202 -53 -363 -219 -406 -416 -10 -49 -13 -210 -14 -740
0 -602 2 -678 16 -692 11 -12 35 -16 85 -16 64 0 72 2 106 33 127 111 322 284
343 304 l25 23 5 638 5 637 23 43 c27 51 39 52 120 12 79 -40 162 -129 193
-207 21 -52 23 -74 24 -228 l0 -170 -40 -3 c-122 -7 -123 -8 -157 -76 -45 -92
-41 -96 93 -96 l112 0 -5 -309 c-3 -169 -2 -314 2 -321 5 -9 27 -11 73 -8 37
2 69 7 72 10 7 6 6 760 -1 993 -5 184 -18 240 -74 336 -119 202 -378 312 -600
253z m30 -159 c0 -2 -7 -30 -15 -62 -13 -48 -15 -154 -15 -638 l0 -582 -125
-109 c-68 -60 -129 -110 -135 -112 -13 -5 -14 1110 0 1192 20 123 107 242 212
291 50 23 78 31 78 20z"/>
</g>
</svg>
