<?xml version="1.0" standalone="no"?>
<!DOCTYPE svg PUBLIC "-//W3C//DTD SVG 20010904//EN"
 "http://www.w3.org/TR/2001/REC-SVG-20010904/DTD/svg10.dtd">
<svg version="1.0" xmlns="http://www.w3.org/2000/svg"
 width="500.000000pt" height="500.000000pt" viewBox="0 0 500.000000 500.000000"
 preserveAspectRatio="xMidYMid meet">

<g transform="translate(0.000000,500.000000) scale(0.100000,-0.100000)"
fill="#000000" stroke="none">
<path d="M2380 4797 c-74 -24 -134 -47 -133 -52 1 -5 66 -31 145 -57 l143 -48
135 46 c150 52 167 59 154 67 -17 10 -277 87 -293 86 -9 0 -77 -19 -151 -42z"/>
<path d="M1963 4672 c-84 -26 -153 -50 -153 -53 0 -3 15 -10 33 -16 17 -6 80
-30 139 -53 l107 -43 161 54 c88 29 160 56 160 59 0 6 -271 101 -285 99 -5 0
-79 -22 -162 -47z"/>
<path d="M2768 4673 c-71 -25 -128 -49 -128 -53 0 -6 320 -120 337 -120 17 0
293 114 293 121 0 4 -53 24 -117 44 -65 20 -131 40 -147 46 -53 17 -110 8
-238 -38z"/>
<path d="M3340 4600 c-34 -10 -230 -90 -254 -102 -17 -9 -17 -12 -4 -19 31
-17 392 -139 413 -139 28 0 297 122 297 135 0 9 -330 116 -397 128 -16 3 -41
2 -55 -3z"/>
<path d="M1490 4541 c-102 -31 -191 -59 -198 -62 -22 -8 236 -129 277 -129 29
0 414 131 406 138 -9 10 -271 112 -285 111 -8 0 -98 -26 -200 -58z"/>
<path d="M2361 4535 c-85 -30 -158 -56 -163 -57 -5 -2 69 -34 163 -72 l171
-69 169 68 c93 37 168 70 166 71 -7 7 -329 114 -340 113 -7 0 -81 -25 -166
-54z"/>
<path d="M1873 4372 c-105 -37 -194 -69 -197 -72 -6 -7 325 -160 345 -160 8 0
86 30 174 66 88 36 174 70 190 76 51 18 49 25 -17 51 -230 91 -271 107 -286
106 -9 0 -103 -30 -209 -67z"/>
<path d="M2810 4379 c-80 -33 -153 -64 -163 -68 -23 -9 -34 -3 211 -101 l183
-73 62 26 c34 14 115 50 180 80 l117 55 -32 12 c-187 66 -381 130 -396 129 -9
0 -82 -28 -162 -60z"/>
<path d="M3680 4358 c-85 -38 -160 -74 -166 -79 -12 -10 -42 -474 -31 -485 3
-3 78 33 166 81 120 64 162 92 166 108 5 23 22 219 32 365 3 46 2 82 -3 81 -5
0 -79 -32 -164 -71z"/>
<path d="M1223 4358 c3 -35 10 -128 17 -208 6 -80 15 -154 20 -166 5 -13 64
-51 161 -103 83 -45 153 -80 154 -79 7 8 -19 455 -26 464 -8 10 -189 96 -293
139 l-38 16 5 -63z"/>
<path d="M2418 4220 c-54 -22 -140 -57 -192 -77 -51 -21 -94 -42 -96 -48 -2
-9 303 -155 371 -176 34 -11 45 -7 200 61 90 40 184 82 208 94 l43 22 -203 82
c-112 45 -211 82 -219 82 -8 -1 -59 -19 -112 -40z"/>
<path d="M3235 4156 l-180 -83 -9 -257 c-4 -141 -6 -260 -3 -263 9 -9 349 180
362 202 9 13 17 92 24 222 14 256 14 263 -1 262 -7 0 -94 -38 -193 -83z"/>
<path d="M1634 4138 c3 -51 8 -145 12 -208 8 -145 11 -171 21 -180 13 -13 345
-191 349 -188 1 2 0 115 -4 251 l-7 248 -25 14 c-39 22 -333 155 -343 155 -5
0 -6 -42 -3 -92z"/>
<path d="M2772 3945 c-101 -46 -190 -89 -198 -96 -11 -9 -14 -59 -14 -285 0
-151 3 -274 8 -274 4 0 97 49 207 109 l200 109 8 143 c11 217 6 373 -13 376
-8 1 -97 -36 -198 -82z"/>
<path d="M2087 4013 c-4 -6 -3 -119 0 -252 l6 -241 56 -34 c31 -18 94 -53 141
-78 47 -25 111 -60 143 -77 31 -17 60 -31 62 -31 8 0 5 524 -3 537 -7 11 -339
167 -383 180 -9 3 -19 1 -22 -4z"/>
<path d="M1264 3855 c4 -14 13 -109 22 -211 8 -103 17 -190 19 -194 7 -12 296
-183 300 -178 3 5 -16 402 -20 425 -3 14 -32 36 -92 68 -49 26 -116 63 -150
81 -74 41 -87 43 -79 9z"/>
<path d="M3755 3866 c-11 -7 -72 -41 -135 -75 -63 -35 -121 -68 -128 -75 -8
-8 -16 -80 -23 -225 -6 -117 -9 -214 -7 -216 4 -4 257 143 282 164 15 13 32
124 41 271 3 52 8 112 11 133 6 41 -6 48 -41 23z"/>
<path d="M1664 3583 c3 -49 8 -147 12 -220 5 -104 10 -135 23 -146 23 -20 307
-187 317 -187 9 0 8 396 -1 435 -3 13 -39 38 -107 74 -57 30 -133 71 -170 93
-36 21 -70 38 -73 38 -4 0 -4 -39 -1 -87z"/>
<path d="M3325 3630 c-39 -21 -115 -62 -170 -92 l-100 -55 -8 -104 c-4 -57 -6
-161 -5 -230 l3 -125 150 87 c83 49 160 99 171 113 20 22 22 40 29 231 4 113
6 208 4 210 -2 2 -36 -14 -74 -35z"/>
<path d="M2782 3346 c-95 -52 -184 -101 -197 -110 l-25 -16 0 -240 c0 -186 3
-240 13 -240 6 1 98 51 202 113 l190 112 6 70 c4 39 7 145 8 238 1 128 -2 167
-11 167 -7 -1 -91 -43 -186 -94z"/>
<path d="M2095 3208 c4 -123 11 -228 16 -234 5 -6 58 -39 117 -74 59 -34 140
-82 181 -106 40 -24 77 -44 82 -44 5 0 9 103 9 228 0 206 -2 230 -17 244 -22
19 -373 208 -386 208 -6 0 -7 -84 -2 -222z"/>
<path d="M1311 3303 c1 -118 24 -330 37 -346 18 -21 283 -189 289 -183 6 5
-15 395 -22 406 -4 7 -227 140 -282 169 -23 12 -23 11 -22 -46z"/>
<path d="M3623 3277 c-192 -113 -172 -80 -182 -302 -5 -104 -8 -191 -7 -192 1
-1 24 12 51 30 163 104 212 136 222 149 15 19 55 389 42 388 -2 -1 -59 -33
-126 -73z"/>
<path d="M1680 3118 c0 -78 24 -385 32 -394 10 -13 286 -190 312 -200 16 -6
17 7 15 192 -1 110 -4 205 -7 212 -4 11 -332 212 -346 212 -3 0 -6 -10 -6 -22z"/>
<path d="M3300 3086 c-30 -18 -99 -59 -152 -90 -54 -31 -102 -65 -108 -76 -16
-29 -13 -393 3 -387 7 2 79 48 159 100 104 68 149 103 152 119 12 53 21 368
11 368 -6 0 -35 -15 -65 -34z"/>
<path d="M2096 2698 c3 -106 7 -202 9 -213 3 -13 70 -62 197 -142 l193 -123 3
217 c2 165 -1 220 -10 229 -20 19 -373 224 -386 224 -8 0 -10 -53 -6 -192z"/>
<path d="M2773 2787 c-95 -56 -182 -110 -193 -119 -19 -17 -20 -29 -20 -233 0
-118 2 -215 5 -215 3 0 92 55 196 121 129 83 193 129 200 146 15 39 12 403 -3
402 -7 0 -91 -46 -185 -102z"/>
<path d="M97 1953 c-10 -10 -8 -1071 2 -1077 14 -9 901 -12 901 -3 0 5 -25 31
-56 60 -60 54 -117 135 -149 207 -10 25 -21 47 -23 50 -2 3 -74 7 -160 10
l-157 5 -3 365 c-1 200 -6 368 -10 372 -4 4 -45 4 -90 0 -79 -8 -184 -2 -228
12 -11 3 -23 3 -27 -1z"/>
<path d="M1302 1941 c-95 -24 -170 -63 -242 -128 -50 -46 -120 -137 -120 -156
0 -4 121 -7 269 -7 148 0 283 -3 301 -6 74 -15 130 -119 130 -240 0 -139 -78
-234 -192 -234 -31 0 -86 23 -113 47 -48 43 -59 74 -61 178 l-2 100 -168 3
c-93 1 -179 0 -191 -3 -22 -5 -23 -10 -23 -93 0 -217 106 -389 300 -487 64
-33 194 -64 263 -65 71 0 182 28 267 68 87 42 193 140 228 214 13 25 29 52 37
58 17 14 35 5 35 -16 0 -9 16 -40 36 -69 198 -299 638 -341 890 -85 36 36 74
84 85 108 28 58 38 56 82 -19 36 -62 136 -153 210 -191 71 -36 198 -67 272
-68 71 0 202 34 276 71 143 72 279 262 279 387 0 63 32 91 61 55 19 -23 103
-58 172 -73 119 -24 163 -59 133 -105 -23 -35 -77 -42 -159 -21 -38 10 -70 16
-71 14 -2 -1 -18 -34 -35 -71 -18 -37 -51 -91 -73 -118 -28 -36 -37 -54 -29
-62 29 -29 224 -76 316 -76 181 0 342 88 421 232 27 48 29 60 29 157 0 115 -5
129 -74 203 -47 50 -86 70 -196 97 -105 26 -140 42 -156 71 -9 18 -7 25 10 43
23 23 96 29 158 13 30 -8 34 -6 45 20 14 32 69 125 78 133 10 8 50 68 50 74 0
24 -176 65 -279 66 -80 0 -184 -22 -242 -50 -60 -31 -133 -105 -164 -167 -16
-32 -30 -60 -32 -62 -4 -6 -53 41 -53 51 0 17 -76 91 -130 127 -192 128 -438
135 -648 16 -70 -39 -169 -146 -186 -202 l-7 -22 290 -3 c274 -3 291 -4 318
-24 71 -52 105 -217 67 -324 -49 -135 -206 -172 -298 -69 -42 45 -58 101 -56
183 1 34 2 67 1 74 -1 10 -93 12 -443 10 l-443 -3 -3 -109 c-2 -81 1 -112 10
-118 7 -4 43 -8 81 -8 60 0 67 -2 67 -20 0 -12 -16 -30 -41 -47 -34 -22 -51
-27 -105 -26 -57 0 -70 4 -101 30 -62 49 -78 93 -78 208 1 76 5 109 19 137 25
51 62 86 105 98 20 5 153 10 299 10 232 0 262 2 262 16 0 21 -81 125 -127 163
-87 72 -257 131 -378 131 -71 0 -194 -29 -260 -60 -103 -50 -212 -157 -251
-247 -19 -43 -38 -42 -59 4 -110 230 -391 351 -663 284z"/>
<path d="M1395 630 c-3 -5 -1 -10 4 -10 6 0 11 5 11 10 0 6 -2 10 -4 10 -3 0
-8 -4 -11 -10z"/>
<path d="M129 528 c0 -51 -2 -103 -5 -115 -4 -24 6 -36 22 -25 12 9 5 232 -7
232 -5 0 -9 -42 -10 -92z"/>
<path d="M2430 609 c0 -5 10 -9 23 -9 40 0 47 -18 47 -117 0 -68 3 -93 13 -93
9 0 11 22 9 88 -4 98 7 122 54 122 14 0 23 4 20 9 -3 4 -42 8 -86 8 -44 0 -80
-4 -80 -8z"/>
<path d="M4294 566 c-6 -21 -7 -43 -2 -57 5 -13 7 -39 3 -57 -5 -26 -1 -37 19
-57 14 -14 32 -25 41 -25 22 0 18 14 -7 25 -21 9 -23 18 -24 80 -2 111 -4 125
-12 125 -4 0 -12 -15 -18 -34z"/>
<path d="M1227 552 c-16 -17 -16 -20 -2 -32 22 -19 42 2 29 30 -9 21 -10 21
-27 2z"/>
<path d="M1397 534 c-4 -4 -7 -41 -7 -81 0 -55 3 -74 13 -71 7 3 13 29 15 73
3 64 -5 94 -21 79z"/>
<path d="M1522 522 c-15 -15 -17 -28 -13 -67 5 -40 11 -51 36 -66 33 -19 85
-25 85 -9 0 6 -15 10 -34 10 -58 0 -86 67 -51 117 20 28 2 40 -23 15z"/>
<path d="M349 513 c-10 -12 -13 -32 -9 -62 4 -36 11 -48 35 -62 34 -20 71 -24
80 -9 4 6 -8 10 -28 10 -20 0 -41 7 -50 18 -22 24 -22 80 0 104 14 15 14 18 1
18 -8 0 -21 -8 -29 -17z"/>
<path d="M470 521 c0 -5 7 -14 15 -21 19 -16 19 -43 0 -80 -14 -26 -14 -30 -1
-30 23 0 39 70 25 109 -10 28 -39 45 -39 22z"/>
<path d="M612 515 c-19 -22 -23 -73 -6 -89 8 -8 14 -19 14 -25 0 -6 9 -11 21
-11 l20 0 -20 26 c-25 31 -27 67 -6 84 8 7 15 16 15 21 0 14 -24 10 -38 -6z"/>
<path d="M740 516 c0 -20 27 -28 34 -10 9 23 8 24 -14 24 -11 0 -20 -6 -20
-14z"/>
<path d="M890 514 c0 -8 5 -12 10 -9 6 3 10 10 10 16 0 5 -4 9 -10 9 -5 0 -10
-7 -10 -16z"/>
<path d="M1007 523 c-15 -14 -5 -32 25 -47 35 -18 52 -14 18 4 -15 8 -20 18
-17 31 5 18 -12 27 -26 12z"/>
<path d="M1843 500 c0 -16 4 -30 9 -30 4 0 8 14 8 30 0 17 -4 30 -8 30 -5 0
-9 -13 -9 -30z"/>
<path d="M2096 514 c-13 -33 -3 -124 14 -124 4 0 3 22 -2 50 -6 33 -5 56 2 70
6 11 7 20 1 20 -5 0 -12 -7 -15 -16z"/>
<path d="M2680 454 c0 -56 3 -75 13 -72 7 3 12 25 13 58 1 37 6 57 18 65 24
18 20 25 -14 25 l-30 0 0 -76z"/>
<path d="M2965 460 c0 -49 4 -70 13 -70 13 0 18 94 6 124 -13 33 -19 14 -19
-54z"/>
<path d="M3090 460 c0 -40 4 -70 10 -70 6 0 10 20 10 45 0 32 6 50 19 62 24
20 18 33 -15 33 -23 0 -24 -2 -24 -70z"/>
<path d="M3230 511 c5 -11 10 -45 10 -75 0 -31 5 -56 10 -56 6 0 10 32 10 75
0 69 -2 75 -20 75 -17 0 -19 -3 -10 -19z"/>
<path d="M3356 514 c-10 -26 -7 -34 14 -34 11 0 20 -4 20 -10 0 -5 7 -10 15
-10 23 0 18 17 -6 23 -16 4 -20 11 -16 26 6 25 -18 29 -27 5z"/>
<path d="M3560 425 c0 -63 4 -105 10 -105 6 0 10 14 10 31 0 23 5 32 20 36
l21 6 -21 19 c-24 22 -27 76 -5 84 25 10 17 34 -10 34 l-25 0 0 -105z"/>
<path d="M3705 513 c27 -63 6 -123 -43 -123 -23 -1 -25 -2 -9 -11 13 -7 26 -7
46 2 23 10 30 21 34 53 7 53 -2 96 -20 96 -11 0 -13 -5 -8 -17z"/>
<path d="M3836 508 c-19 -27 -20 -55 -3 -86 14 -25 59 -52 87 -52 33 0 78 30
91 61 11 27 10 36 -6 65 -10 19 -24 34 -32 34 -17 0 -17 -15 2 -30 20 -16 19
-54 -1 -85 -13 -19 -25 -25 -54 -25 -46 0 -70 24 -70 70 0 18 7 42 17 52 14
16 15 18 0 18 -9 0 -23 -10 -31 -22z"/>
<path d="M4108 460 c2 -38 8 -70 13 -70 6 0 8 9 4 20 -9 27 10 89 32 106 16
12 15 13 -17 14 l-35 0 3 -70z"/>
<path d="M4690 505 c0 -19 5 -25 21 -25 18 0 19 3 9 15 -6 8 -9 19 -5 25 3 5
-1 10 -9 10 -10 0 -16 -9 -16 -25z"/>
<path d="M2220 495 c0 -15 4 -24 10 -20 6 3 10 12 10 20 0 8 -4 17 -10 20 -6
4 -10 -5 -10 -20z"/>
<path d="M4580 496 c0 -28 14 -35 23 -12 3 8 -1 20 -9 26 -12 10 -14 8 -14
-14z"/>
<path d="M4452 498 c-17 -17 -15 -53 3 -68 13 -11 15 -6 15 34 0 50 -1 51 -18
34z"/>
<path d="M1090 420 c0 -21 4 -30 13 -27 6 2 12 14 12 27 0 13 -6 25 -12 28 -9
2 -13 -7 -13 -28z"/>
<path d="M4780 420 c0 -20 5 -30 15 -30 10 0 15 10 15 30 0 20 -5 30 -15 30
-10 0 -15 -10 -15 -30z"/>
<path d="M1717 433 c-14 -13 -6 -31 19 -48 19 -12 29 -14 37 -6 8 8 5 11 -11
11 -17 0 -22 6 -22 25 0 24 -10 32 -23 18z"/>
<path d="M2845 430 c-3 -5 -1 -10 4 -10 6 0 11 5 11 10 0 6 -2 10 -4 10 -3 0
-8 -4 -11 -10z"/>
<path d="M3448 415 c-6 -28 6 -34 16 -9 8 22 7 34 -3 34 -5 0 -11 -11 -13 -25z"/>
<path d="M750 415 c0 -8 5 -15 10 -15 6 0 10 7 10 15 0 8 -4 15 -10 15 -5 0
-10 -7 -10 -15z"/>
<path d="M890 413 c0 -13 5 -23 10 -23 13 0 13 11 0 30 -8 12 -10 11 -10 -7z"/>
<path d="M1254 391 c19 -21 46 -29 46 -12 0 5 -8 11 -17 15 -10 3 -25 9 -33
12 -10 5 -9 0 4 -15z"/>
<path d="M1835 400 c-3 -5 3 -10 15 -10 12 0 18 5 15 10 -3 6 -10 10 -15 10
-5 0 -12 -4 -15 -10z"/>
<path d="M2860 390 c8 -5 26 -10 39 -10 32 0 24 6 -19 14 -25 4 -31 3 -20 -4z"/>
<path d="M208 383 c12 -2 32 -2 45 0 12 2 2 4 -23 4 -25 0 -35 -2 -22 -4z"/>
<path d="M1010 380 c0 -5 13 -10 29 -10 17 0 33 5 36 10 4 6 -8 10 -29 10 -20
0 -36 -4 -36 -10z"/>
<path d="M2136 378 c3 -4 25 -8 50 -8 24 0 44 4 44 8 0 5 -22 8 -49 8 -28 0
-48 -3 -45 -8z"/>
<path d="M3360 380 c0 -5 14 -10 31 -10 17 0 28 4 24 10 -3 6 -17 10 -31 10
-13 0 -24 -4 -24 -10z"/>
<path d="M4506 380 c16 -15 84 -16 84 -2 0 5 -21 9 -46 10 -25 0 -42 -3 -38
-8z"/>
<path d="M4700 380 c0 -5 13 -10 29 -10 17 0 33 5 36 10 4 6 -8 10 -29 10 -20
0 -36 -4 -36 -10z"/>
<path d="M747 333 c-4 -3 -7 -11 -7 -17 0 -6 5 -5 12 2 6 6 9 14 7 17 -3 3 -9
2 -12 -2z"/>
</g>
</svg>
