<?xml version="1.0" standalone="no"?>
<!DOCTYPE svg PUBLIC "-//W3C//DTD SVG 20010904//EN"
 "http://www.w3.org/TR/2001/REC-SVG-20010904/DTD/svg10.dtd">
<svg version="1.0" xmlns="http://www.w3.org/2000/svg"
 width="500.000000pt" height="500.000000pt" viewBox="0 0 500.000000 500.000000"
 preserveAspectRatio="xMidYMid meet">

<g transform="translate(0.000000,500.000000) scale(0.100000,-0.100000)"
fill="#000000" stroke="none">
<path d="M2015 4815 c-156 -40 -199 -54 -285 -89 -367 -150 -666 -394 -877
-713 -94 -142 -243 -462 -243 -522 0 -9 -4 -21 -9 -26 -23 -24 -70 -347 -70
-483 -2 -332 96 -696 261 -967 10 -16 21 -37 25 -45 3 -8 19 -31 35 -51 15
-20 28 -40 28 -44 0 -16 153 -195 226 -265 133 -128 295 -250 404 -305 19 -9
42 -23 50 -29 12 -10 86 -42 195 -86 292 -117 757 -154 1060 -85 381 88 714
269 950 517 131 137 250 286 278 348 4 8 21 38 37 65 40 65 103 197 125 260 9
28 21 59 25 70 18 44 41 128 50 182 5 32 16 96 24 143 30 174 16 515 -28 695
-8 33 -20 83 -26 110 -6 28 -15 59 -20 70 -5 11 -12 31 -16 45 -7 27 -50 126
-65 150 -5 8 -16 31 -25 50 -9 19 -20 44 -25 55 -5 11 -18 34 -29 50 -11 17
-26 42 -35 57 -75 132 -256 337 -405 457 -225 182 -504 321 -750 376 -41 9
-86 22 -100 28 -16 7 -133 12 -330 14 l-305 3 -130 -35z m1011 -370 c143 -25
210 -46 342 -106 35 -16 65 -29 67 -29 7 0 178 -105 241 -148 112 -77 275
-251 365 -392 71 -111 169 -322 169 -365 0 -13 -42 -15 -299 -15 -275 0 -299
1 -306 17 -3 10 -5 148 -4 306 1 194 -1 291 -9 295 -5 4 -181 6 -391 4 l-381
-2 -2 -308 -3 -307 -335 -5 -335 -5 -3 -187 -2 -188 -24 0 c-29 0 -191 81
-277 139 -185 124 -308 316 -309 480 0 43 5 65 36 156 39 113 209 303 364 406
152 101 398 211 536 239 160 33 416 40 560 15z m-886 -1645 c0 -136 3 -180 13
-189 9 -7 119 -12 338 -13 l324 -3 5 -335 5 -335 385 3 c211 2 386 5 388 7 2
2 5 151 5 332 l2 328 313 3 314 2 -7 -42 c-4 -24 -11 -47 -16 -53 -5 -5 -9
-16 -9 -25 0 -19 -100 -226 -148 -305 -79 -131 -233 -301 -362 -400 -98 -75
-351 -215 -389 -215 -6 0 -19 -4 -29 -9 -20 -11 -88 -32 -187 -58 -90 -23
-484 -26 -580 -4 -348 78 -626 241 -851 497 -113 128 -159 234 -158 364 0 71
5 96 30 155 80 187 272 356 518 455 38 16 75 26 83 23 10 -4 13 -44 13 -183z"/>
<path d="M3690 871 c-19 -4 -48 -15 -65 -23 -32 -17 -102 -89 -122 -125 -24
-43 -41 -139 -39 -218 4 -107 21 -176 59 -232 62 -92 155 -133 298 -133 152 0
243 45 306 151 27 47 33 68 41 159 8 80 7 122 -4 177 -16 84 -25 103 -79 161
-64 70 -101 83 -240 87 -66 2 -136 1 -155 -4z m237 -135 c58 -38 86 -100 91
-195 6 -107 -13 -175 -63 -227 -45 -48 -98 -62 -182 -49 -121 18 -187 191
-137 361 38 130 180 184 291 110z"/>
<path d="M895 848 c-64 -25 -128 -87 -156 -152 -30 -69 -39 -256 -16 -333 29
-98 107 -171 205 -192 29 -6 123 -11 207 -11 l155 0 0 55 0 55 -107 0 c-149 0
-231 15 -265 47 -33 32 -51 72 -46 109 l3 29 208 3 207 2 0 55 c0 30 -1 56 -2
57 -2 1 -95 4 -208 7 -232 7 -227 5 -190 84 36 75 51 81 235 87 l160 5 3 58 3
57 -173 -1 c-146 -1 -181 -4 -223 -21z"/>
<path d="M1440 515 l0 -356 68 3 67 3 -1 248 c0 136 2 247 5 247 13 -1 30 -17
47 -47 11 -18 40 -68 67 -112 26 -44 47 -83 47 -87 0 -3 8 -18 19 -32 10 -15
31 -49 45 -77 15 -27 40 -70 55 -95 l27 -45 85 0 84 0 3 353 2 352 -76 0 -77
0 7 -235 c6 -205 5 -235 -8 -235 -15 0 -48 40 -76 94 -9 17 -30 56 -47 86 -17
30 -43 78 -58 105 -15 28 -46 80 -68 118 l-42 67 -87 0 -88 0 0 -355z"/>
<path d="M2215 858 c-3 -7 -4 -166 -3 -353 l3 -340 70 0 70 0 3 158 c1 86 6
157 11 157 16 0 201 -219 201 -238 0 -4 19 -27 43 -50 l43 -42 77 6 c42 4 77
9 77 12 0 3 -20 29 -45 58 -25 28 -45 55 -45 59 0 3 -16 23 -35 44 -19 20 -48
58 -65 82 -16 25 -39 54 -50 64 -38 34 -26 63 76 185 53 63 103 125 111 138 9
12 23 22 32 22 17 0 61 -39 61 -54 0 -5 14 -25 30 -46 17 -21 30 -41 30 -44 0
-3 24 -39 53 -79 86 -119 88 -126 87 -268 -1 -68 -1 -134 -1 -146 1 -22 5 -23
71 -23 l70 0 0 155 0 156 65 97 c36 53 74 108 84 122 50 68 121 170 121 175 0
3 -37 5 -82 5 l-83 0 -40 -66 c-22 -37 -44 -74 -50 -83 -37 -61 -72 -101 -90
-101 -19 0 -29 11 -70 79 -6 9 -23 36 -39 61 -16 25 -39 60 -50 77 l-21 33
-141 0 -142 0 -51 -57 c-27 -32 -70 -85 -95 -118 -61 -83 -127 -148 -137 -138
-5 5 -10 76 -11 158 l-3 150 -68 3 c-48 2 -69 -1 -72 -10z"/>
</g>
</svg>
